<svg width="136" height="28" viewBox="0 0 136 28" fill="none" xmlns="http://www.w3.org/2000/svg">
<path opacity="0.7" fill-rule="evenodd" clip-rule="evenodd" d="M75.0051 7.01263H64.8897C59.2402 7.01263 54.6604 11.7069 54.6604 17.4975C54.6604 23.2881 59.2402 27.9824 64.8897 27.9824H75.0051V23.8676H64.8897C61.4573 23.8676 58.6749 21.0156 58.6749 17.4975C58.6749 13.9794 61.4573 11.1274 64.8897 11.1274H75.0051V7.01263Z" fill="white"/>
<path fill-rule="evenodd" clip-rule="evenodd" d="M30.5341 0V27.9597H34.5485V25.5565C36.3183 27.0576 38.5893 27.9597 41.0658 27.9597C46.7153 27.9597 51.2951 23.2654 51.2951 17.4748C51.2951 11.6842 46.7153 6.98992 41.0658 6.98992C38.5893 6.98992 36.3183 7.892 34.5485 9.39307V0H30.5341ZM41.0658 23.8449C37.6335 23.8449 34.851 20.9929 34.851 17.4748C34.851 13.9567 37.6335 11.1047 41.0658 11.1047C44.4982 11.1047 47.2806 13.9567 47.2806 17.4748C47.2806 20.9929 44.4982 23.8449 41.0658 23.8449ZM2.907 19.5297V7.05893H0V19.5297C0 24.2077 3.69983 28 8.26381 28C12.8278 28 16.5276 24.2077 16.5276 19.5297V7.05893H13.6206V19.5297C13.6206 22.5621 11.2223 25.0204 8.26381 25.0204C5.30533 25.0204 2.907 22.5621 2.907 19.5297ZM20.9573 7.05893V27.922H23.8643V7.05893H20.9573ZM125.036 11.0673V20.1755C125.036 24.4638 128.427 27.9401 132.611 27.9401H135.613V23.8254H132.611C130.644 23.8254 129.05 22.1913 129.05 20.1755V11.0673H135.625V6.95253H129.05V1.96675e-05H125.036V6.95253H121.986V11.0673H125.036ZM98.9401 13.2149C98.9401 9.75631 101.711 6.95253 105.129 6.95253H117.462V11.0146H105.129C103.928 11.0146 102.955 11.9997 102.955 13.2149C102.955 14.4302 103.928 15.4153 105.129 15.4153L107.435 15.4153H112.475C115.893 15.4153 118.664 18.2191 118.664 21.6777C118.664 25.1364 115.893 27.9401 112.475 27.9401H99.071V23.8781H112.475C113.676 23.8781 114.649 22.893 114.649 21.6777C114.649 20.4625 113.676 19.4773 112.475 19.4773L108.5 19.4774H105.129C101.711 19.4774 98.9401 16.6736 98.9401 13.2149ZM85.4102 11.1274H75.181C71.7487 11.1274 68.9662 13.9794 68.9662 17.4975C68.9662 21.0156 71.7487 23.8676 75.181 23.8676H85.4103C88.8426 23.8676 91.6251 21.0156 91.6251 17.4975C91.6251 13.9794 88.8426 11.1274 85.4102 11.1274ZM75.181 7.01265C69.5315 7.01265 64.9518 11.7069 64.9518 17.4975C64.9518 23.2882 69.5316 27.9824 75.181 27.9824H85.4103C91.0597 27.9824 95.6395 23.2882 95.6395 17.4975C95.6395 11.7069 91.0597 7.01265 85.4102 7.01265H75.181Z" fill="white"/>
</svg>
